<svg width="213" height="117" viewBox="0 0 213 117" fill="none" xmlns="http://www.w3.org/2000/svg">
<path d="M29.856 105.163C26.208 105.163 22.56 105.035 18.912 104.779C15.328 104.587 11.584 104.075 7.68 103.243V38.7308C10.752 38.1548 14.112 37.7388 17.76 37.4828C21.408 37.1628 24.8 37.0028 27.936 37.0028C32.16 37.0028 36.032 37.3228 39.552 37.9628C43.136 38.5388 46.208 39.5628 48.768 41.0348C51.328 42.5068 53.312 44.4588 54.72 46.8908C56.192 49.2588 56.928 52.2028 56.928 55.7228C56.928 61.0348 54.368 65.2268 49.248 68.2988C53.472 69.8988 56.352 72.0748 57.888 74.8268C59.424 77.5788 60.192 80.6828 60.192 84.1388C60.192 91.1148 57.632 96.3628 52.512 99.8828C47.456 103.403 39.904 105.163 29.856 105.163ZM22.272 75.3068V92.4908C23.36 92.6188 24.544 92.7148 25.824 92.7788C27.104 92.8428 28.512 92.8748 30.048 92.8748C34.528 92.8748 38.144 92.2348 40.896 90.9548C43.648 89.6748 45.024 87.3068 45.024 83.8508C45.024 80.7788 43.872 78.6028 41.568 77.3228C39.264 75.9788 35.968 75.3068 31.68 75.3068H22.272ZM22.272 63.8828H29.568C34.176 63.8828 37.472 63.3068 39.456 62.1548C41.44 60.9388 42.432 59.0188 42.432 56.3948C42.432 53.7068 41.408 51.8188 39.36 50.7308C37.312 49.6428 34.304 49.0988 30.336 49.0988C29.056 49.0988 27.68 49.1308 26.208 49.1948C24.736 49.1948 23.424 49.2588 22.272 49.3868V63.8828Z" fill="#234A90"/>
<path d="M108.944 104.299C107.6 102.123 106 99.7868 104.144 97.2908C102.352 94.7308 100.368 92.2028 98.192 89.7068C96.08 87.1468 93.872 84.7148 91.568 82.4108C89.264 80.0428 86.96 77.9628 84.656 76.1708V104.299H69.68V37.7708H84.656V62.9228C88.56 58.8268 92.464 54.5708 96.368 50.1548C100.336 45.6748 104.016 41.5468 107.408 37.7708H125.168C120.624 43.1468 116.048 48.3308 111.44 53.3228C106.896 58.3148 102.096 63.3388 97.04 68.3948C102.352 72.8108 107.472 78.0588 112.4 84.1388C117.392 90.2188 122.16 96.9388 126.704 104.299H108.944Z" fill="#234A90"/>
<path d="M170.199 87.9277C171.955 86.7541 173.302 85.6608 174.242 84.6479C175.199 83.5462 175.863 82.5247 176.235 81.5835C176.571 80.5891 176.641 79.6571 176.445 78.7875C176.248 77.918 175.866 77.0576 175.297 76.2063C174.087 74.3972 172.24 73.4764 169.755 73.4439C167.234 73.3583 163.437 74.0108 158.362 75.4015C156.126 75.9722 153.837 76.4632 151.494 76.8743C149.116 77.2322 146.8 77.2794 144.545 77.0159C142.255 76.6992 140.071 75.9652 137.992 74.8139C135.879 73.6095 133.968 71.7303 132.261 69.1763C130.554 66.6223 129.503 64.0143 129.11 61.3522C128.68 58.6369 128.863 55.9741 129.659 53.3638C130.455 50.7535 131.854 48.2402 133.857 45.8237C135.824 43.3539 138.377 41.0699 141.516 38.9715C145.241 36.4819 148.727 34.7293 151.974 33.7135C155.221 32.6978 158.043 32.082 160.439 31.8661L163.409 44.0836C161.332 44.3169 159.141 44.7811 156.834 45.4762C154.545 46.0825 152.07 47.2747 149.41 49.053C146.43 51.0447 144.56 52.9108 143.799 54.6513C143.055 56.3029 143.253 57.9801 144.391 59.6828C145.066 60.6937 145.875 61.385 146.816 61.7566C147.757 62.1282 148.849 62.3222 150.092 62.3384C151.352 62.2659 152.701 62.0956 154.138 61.8276C155.593 61.4708 157.173 61.0695 158.876 60.6236C162.461 59.7673 165.673 59.1598 168.512 58.8014C171.316 58.3897 173.873 58.4132 176.181 58.8719C178.542 59.295 180.691 60.2066 182.627 61.6065C184.564 63.0064 186.421 65.0366 188.2 67.697C191.649 72.8581 192.526 78.0846 190.828 83.3763C189.095 88.6147 184.584 93.6702 177.294 98.5427C174.846 100.179 172.532 101.495 170.35 102.492C168.203 103.542 166.216 104.369 164.388 104.975C162.614 105.545 161.008 105.964 159.571 106.233C158.186 106.465 156.98 106.617 155.95 106.69L152.847 94.4455C155.101 94.2475 157.674 93.7208 160.566 92.8652C163.476 91.9209 166.687 90.2751 170.199 87.9277Z" fill="#009BDE"/>
<circle cx="179" cy="31.2988" r="11" fill="#009BDE"/>
</svg>
