<svg width="678" height="411" viewBox="0 0 678 411" fill="none" xmlns="http://www.w3.org/2000/svg">
<path d="M478.139 473.596C490.942 465.038 500.769 457.066 507.62 449.68C514.6 441.647 519.444 434.199 522.154 427.336C524.604 420.085 525.114 413.289 523.682 406.949C522.251 400.609 519.46 394.335 515.311 388.127C506.494 374.936 493.025 368.222 474.904 367.985C456.524 367.36 428.832 372.118 391.827 382.259C375.524 386.421 358.832 390 341.751 392.998C324.411 395.608 307.52 395.952 291.08 394.03C274.381 391.721 258.455 386.369 243.301 377.975C227.888 369.192 213.958 355.49 201.51 336.867C189.062 318.244 181.402 299.227 178.531 279.816C175.401 260.017 176.736 240.601 182.537 221.568C188.338 202.534 198.541 184.208 213.145 166.587C227.49 148.579 246.108 131.924 268.998 116.624C296.156 98.4705 321.574 85.6907 345.25 78.2844C368.927 70.878 389.501 66.3876 406.972 64.8131L428.631 153.899C413.49 155.6 397.509 158.985 380.689 164.053C363.998 168.474 345.953 177.168 326.555 190.135C304.828 204.657 291.19 218.264 285.64 230.955C280.218 242.999 281.657 255.228 289.956 267.643C294.883 275.015 300.778 280.055 307.641 282.765C314.504 285.475 322.466 286.889 331.526 287.007C340.715 286.478 350.55 285.237 361.032 283.282C371.642 280.681 383.158 277.755 395.579 274.504C421.716 268.259 445.138 263.83 465.843 261.216C486.29 258.215 504.928 258.386 521.758 261.731C538.976 264.816 554.645 271.463 568.765 281.67C582.886 291.878 596.429 306.681 609.396 326.08C634.551 363.714 640.94 401.823 628.561 440.408C615.924 478.606 583.029 515.469 529.876 550.997C512.029 562.926 495.15 572.525 479.239 579.792C463.588 587.448 449.099 593.484 435.773 597.901C422.835 602.058 411.125 605.114 400.644 607.068C390.55 608.763 381.75 609.874 374.244 610.401L351.614 521.122C368.05 519.678 386.813 515.837 407.902 509.599C429.121 502.713 452.533 490.712 478.139 473.596Z" fill="#C0D2F1" fill-opacity="0.05"/>
<path d="M544 84C544 114.376 519.376 139 489 139C458.624 139 434 114.376 434 84C434 53.6243 458.624 29 489 29C519.376 29 544 53.6243 544 84Z" fill="#C0D2F1" fill-opacity="0.05"/>
</svg>
